<?xml version="1.0" standalone="no"?>
<!DOCTYPE svg PUBLIC "-//W3C//DTD SVG 20010904//EN"
 "http://www.w3.org/TR/2001/REC-SVG-20010904/DTD/svg10.dtd">
<svg version="1.0" xmlns="http://www.w3.org/2000/svg"
 width="240.000000pt" height="240.000000pt" viewBox="0 0 240.000000 240.000000"
 preserveAspectRatio="xMidYMid meet">
<metadata>
Created by potrace 1.11, written by Peter Selinger 2001-2013
</metadata>
<g transform="translate(0.000000,240.000000) scale(0.100000,-0.100000)"
fill="#000000" stroke="none">
<path d="M1678 2373 c-47 -39 -182 -155 -188 -162 -3 -3 -52 -46 -110 -95 -58
-50 -112 -97 -121 -105 -9 -9 -38 -34 -65 -56 -45 -37 -122 -103 -134 -115 -3
-3 -36 -32 -75 -65 -98 -84 -126 -108 -139 -120 -6 -5 -40 -35 -76 -65 -36
-30 -70 -59 -76 -65 -9 -9 -62 -54 -167 -145 -16 -14 -37 -32 -46 -40 -9 -8
-46 -40 -81 -70 -196 -166 -204 -175 -196 -213 4 -17 11 -36 17 -42 12 -12
369 -24 376 -12 2 4 9 5 14 1 5 -3 111 -5 235 -4 l226 1 -120 -233 c-370 -720
-355 -688 -345 -722 7 -25 16 -33 45 -40 35 -9 39 -7 100 45 34 30 72 63 84
74 12 11 30 27 40 35 29 24 241 206 313 269 36 31 88 75 115 99 28 24 62 54
76 66 14 13 79 70 145 126 66 56 147 126 179 154 32 28 68 59 80 69 12 9 35
30 51 45 17 15 59 52 95 82 35 30 74 64 86 75 12 11 41 35 64 54 23 19 60 52
82 73 35 34 40 43 34 71 -4 17 -10 35 -15 40 -12 12 -131 25 -137 15 -3 -5 -9
-6 -14 -3 -8 5 -435 8 -465 4 -5 -1 -14 0 -20 1 -5 1 -56 1 -113 1 l-104 -2
108 208 c346 673 366 714 359 741 -14 56 -65 67 -117 25z"/>
</g>
</svg>
